<?xml version="1.0" encoding="UTF-8" ?>
<!DOCTYPE svg PUBLIC "-//W3C//DTD SVG 1.1//EN" "http://www.w3.org/Graphics/SVG/1.1/DTD/svg11.dtd">
<svg width="512pt" height="512pt" viewBox="0 0 459 500" version="1.1" xmlns="http://www.w3.org/2000/svg">
<path fill="#020202" d=" M 385.17 32.12 C 387.24 30.55 390.83 31.43 391.60 34.02 C 391.55 35.48 390.79 36.78 390.06 38.00 C 359.29 80.95 328.83 124.14 298.10 167.14 C 296.50 169.27 295.00 171.59 292.79 173.14 C 291.27 173.42 289.72 173.42 288.19 173.48 C 287.92 172.81 287.38 171.46 287.11 170.79 C 295.23 158.17 304.93 146.63 313.37 134.23 C 293.01 107.12 273.18 79.60 251.59 53.44 C 246.12 46.64 240.36 40.07 234.89 33.27 C 257.96 33.19 281.03 33.31 304.09 33.21 C 305.50 33.27 306.96 33.19 308.32 33.67 C 311.16 36.56 313.26 40.07 315.73 43.27 C 326.39 57.52 337.02 71.78 347.67 86.02 C 359.25 69.13 370.92 52.29 382.32 35.27 C 383.15 34.13 384.01 32.97 385.17 32.12 Z" />
<path fill="#020202" d=" M 393.35 104.16 C 399.15 101.64 407.22 105.58 407.85 112.11 C 408.28 117.67 404.86 122.47 401.69 126.70 C 392.08 139.05 382.19 151.18 372.35 163.35 C 347.64 194.31 322.99 225.30 298.28 256.25 C 324.82 297.57 350.43 339.49 377.66 380.37 C 397.14 409.50 417.56 438.00 437.90 466.54 C 375.69 466.49 313.48 466.46 251.27 466.55 C 220.87 417.43 190.82 368.09 160.42 318.96 C 128.04 357.42 97.85 397.67 68.36 438.37 C 62.06 447.02 56.00 455.89 48.87 463.91 C 45.52 467.63 41.31 471.37 36.01 471.49 C 32.80 471.53 28.94 470.68 27.40 467.52 C 25.15 462.98 26.99 457.67 29.85 453.86 C 39.19 441.28 49.38 429.35 59.03 417.02 C 89.35 378.89 119.54 340.66 149.95 302.61 C 108.24 237.68 66.04 173.06 24.15 108.25 C 85.61 108.30 147.07 108.14 208.53 108.32 C 229.47 143.39 250.68 178.29 271.72 213.30 C 277.11 222.13 282.28 231.09 287.84 239.82 C 311.26 211.34 333.05 181.58 354.89 151.89 C 364.37 139.03 373.51 125.92 383.31 113.31 C 386.15 109.80 389.02 105.92 393.35 104.16 Z" />
</svg>
