<?xml version="1.0" encoding="utf-8"?>
<!DOCTYPE svg PUBLIC "-//W3C//DTD SVG 1.1//EN" "http://www.w3.org/Graphics/SVG/1.1/DTD/svg11.dtd">
<svg version="1.1" id="Layer_1" xmlns="http://www.w3.org/2000/svg" xmlns:xlink="http://www.w3.org/1999/xlink" x="0px" y="0px"
	 viewBox="197.7366 230.0386 1517.316 1173.3656" enable-background="new 197.7366 230.0386 1517.316 1173.3656"
	 xml:space="preserve">
<g id="_x23_ffffffff">
</g>
<g>
	<path fill="#E0C8B0" stroke="#E0C8B0" stroke-width="0.0938" d="M1080.02,268.62c8.22-1.24,16.4299-2.79,24.73-3.37
		c34.61,75.84,68.83,151.87,103.3101,227.77c-0.27,0.19-0.8201,0.56-1.0901,0.75c-240.78,41.78-481.6,83.39-722.36,125.28
		c-0.23-0.18-0.7-0.53-0.93-0.71c-0.25-1.85-0.73-3.65-1.34-5.39c-21.83-62.59-43.63-125.19-65.42-187.79
		c-6.29-18.26-12.97-36.4-18.85-54.8c47.94-7.49,95.98-14.28,143.95-21.6C721.36,322.08,900.68,295.28,1080.02,268.62z"/>
	<path fill="#D5B699" stroke="#D5B699" stroke-width="0.0938" d="M1399.1801,265.06c58.73,49.17,117.22,98.66,175.8199,148.01
		c31.35,26.27,62.58,52.69,93.85,79.06c2.49,1.52-0.58,3.73-1.51,5.23c-64.2999,77.66-128.51,155.41-192.84,233.04
		c-0.9399-0.64-1.86-1.26-2.76-1.88c-1.63,1.11-3.4299,2.05-4.67,3.61c-1.73,2.68-2.1899,6.13-4.7,8.3
		c-1.75,1.56-2.8,3.65-3.41,5.88c-74.24-74.78-148.36-149.7-222.76-224.34c-5.88-6.18-12.0199-12.1-17.9099-18.25
		c-3.4501-3.28-6.5-7.01-10.3401-9.84l-0.98-0.11c0.27-0.19,0.8201-0.56,1.0901-0.75c4.49-4.19,7.9099-9.39,12.0599-13.92
		c50.8199-60.85,101.67-121.67,152.49-182.52C1381.49,286.09,1390.12,275.39,1399.1801,265.06z"/>
	<path fill="#D3B9A0" stroke="#D3B9A0" stroke-width="0.0938" d="M243.05,486.87c13.48,6.59,26.44,14.23,39.65,21.34
		c64.9,35.49,129.79,70.98,194.68,106.47c2.14,1.14,4.3,2.25,6.3,3.66c0.23,0.18,0.7,0.53,0.93,0.71c0.27,0.21,0.79,0.63,1.06,0.84
		c34.98,60.42,70.49,120.54,105.57,180.9c13.51,23.72,27.57,47.14,41.23,70.79c7.15,11.92,13.89,24.09,21.1801,35.93
		c-4.45-0.17-7.85-3.5-11.6-5.47c-51.94-29.61-104.06-58.95-155.87-88.78c-0.2,1.94-0.39,3.89-0.5,5.86
		c-0.21-1.73-0.37-3.47-0.53-5.19c-27.65-16.43-55.62-32.36-83.25-48.79c-4.75-6.46-7.97-13.99-12.24-20.79
		c-38.85-68.13-77.72-136.24-116.57-204.36C263.12,522.26,252.71,504.76,243.05,486.87z"/>
	<path fill="#A08165" stroke="#A08165" stroke-width="0.0938" d="M484.61,619.05c240.76-41.89,481.58-83.5,722.36-125.28l0.98,0.11
		c-3.11,102.15-7.2899,204.27-10.38,306.42C1018.74,836.29,839.89,872.21,661.06,908.25c-1.78,0.32-3.57,0.63-5.35,0.92
		c-0.31-0.07-0.92-0.22-1.22-0.29c-0.29-0.48-0.57-0.93-0.84-1.37c-7.29-11.84-14.03-24.01-21.1801-35.93
		c-13.66-23.65-27.72-47.07-41.23-70.79c0.68-1.89,0.54-3.9-0.71-5.5099c-5.84-8.94-10.71-18.45-16.21-27.59
		c-5.07-10.06-11.36-19.43-16.76-29.3c-6.82-11.33-12.57-23.25-19.5-34.52c-7.88-12.68-15.09-25.77-22.27-38.84
		c-8.18-13.83-15.96-27.91-24.1-41.77c-1.12-2.33-3.9-2.52-6.02-3.37C485.4,619.68,484.88,619.26,484.61,619.05z"/>
	<path fill="#78492D" stroke="#78492D" stroke-width="0.0938" d="M1207.95,493.88c3.8401,2.83,6.89,6.56,10.3401,9.84
		c5.89,6.15,12.0299,12.07,17.9099,18.25c-1.95,64.34-4.2799,128.6801-6.1899,193.03c-0.9301,12.22-0.53,24.49-1.38,36.72
		c-0.49,14.2-0.47,28.41-1.39,42.59c-9.9,1.98-19.78,4-29.67,5.99C1200.66,698.15,1204.84,596.03,1207.95,493.88z"/>
	<path fill="#916945" stroke="#916945" stroke-width="0.0938" d="M1236.2,521.97c74.4,74.64,148.52,149.5601,222.76,224.34
		c-0.08,0.4-0.26,1.18-0.34,1.57c-77.17,15.25-154.24,31.02-231.38,46.43c0.92-14.18,0.9-28.39,1.39-42.59
		c0.85-12.23,0.45-24.5,1.38-36.72C1231.92,650.65,1234.25,586.31,1236.2,521.97z"/>
	<path fill="#927153" stroke="#927153" stroke-width="0.0938" d="M485.67,619.89c2.12,0.85,4.9,1.04,6.02,3.37
		c8.14,13.86,15.92,27.94,24.1,41.77c7.18,13.0699,14.39,26.16,22.27,38.84c6.93,11.27,12.68,23.19,19.5,34.52
		c5.4,9.87,11.69,19.24,16.76,29.3c5.5,9.14,10.37,18.65,16.21,27.59c1.25,1.61,1.39,3.62,0.71,5.5099
		C556.16,740.43,520.65,680.31,485.67,619.89z"/>
	<path fill="#D5B79D" stroke="#D5B79D" stroke-width="0.0938" d="M1467.0699,732.13c1.2401-1.56,3.04-2.5,4.67-3.61
		c0.9,0.62,1.8201,1.24,2.76,1.88c-4.27,5.89-9.72,10.89-13.5699,17.0699c49.0499,5.72,98.11,11.28,147.1499,16.97
		c0.77-0.03,1.41,0.25,1.9301,0.84c-44.91,9.4-89.84,18.7599-134.75,28.16c-5.67,1.26-11.38,2.29-16.99,3.77
		c-18.89,3.32-37.5601,7.81-56.38,11.52c-203.3,42.49-406.61,84.98-609.92,127.42c-8.93,1.64-17.74,4.16-26.72,5.27
		c-30.8-8.53-61.45-17.77-92.19-26.61c-5.73-2.06-11.93-2.77-17.35-5.64c1.78-0.29,3.57-0.6,5.35-0.92
		c178.83-36.04,357.68-71.96,536.5099-107.95c9.89-1.99,19.77-4.01,29.67-5.99c77.14-15.41,154.21-31.18,231.38-46.43
		c0.08-0.39,0.26-1.17,0.34-1.57c0.61-2.23,1.66-4.32,3.41-5.88C1464.88,738.26,1465.34,734.81,1467.0699,732.13z"/>
	<path fill="#AF8B67" stroke="#AF8B67" stroke-width="0.0938" d="M1401.89,808.73c18.8199-3.71,37.49-8.2,56.38-11.52
		c-5.27,128.91-10.59,257.82-15.86,386.7299c-0.12,3.1801-0.11,6.39-0.5901,9.5701c-253.3999,58.23-506.7599,116.6-760.14,174.88
		c-9.04-152.12-17.81-304.27-26.69-456.41c-0.13-0.78-0.38-2.33-0.5-3.1c0.3,0.07,0.91,0.22,1.22,0.29
		c5.42,2.87,11.62,3.58,17.35,5.64c30.74,8.84,61.39,18.08,92.19,26.61c8.98-1.11,17.79-3.63,26.72-5.27
		C995.28,893.71,1198.59,851.22,1401.89,808.73z"/>
	<path fill="#C1A389" stroke="#C1A389" stroke-width="0.0938" d="M486.18,813.26c51.81,29.83,103.93,59.17,155.87,88.78
		c3.75,1.97,7.15,5.3,11.6,5.47c0.27,0.44,0.55,0.89,0.84,1.37c0.12,0.77,0.37,2.32,0.5,3.1c8.88,152.14,17.65,304.29,26.69,456.41
		c-61.09-105.3-121.92-210.76-182.93-316.11c-1.24-1.86-1.11-4.15-1.22-6.27c-3.87-75.63-8.07-151.26-11.85-226.89
		C485.79,817.15,485.98,815.2,486.18,813.26z"/>
</g>
</svg>
